<svg width="27" height="31" viewBox="0 0 27 31" fill="none" xmlns="http://www.w3.org/2000/svg">
<path d="M0.5 23.4632C2.4609 14.8455 6.65205 6.88438 12.6597 0.36599C12.7665 0.250624 12.8963 0.158527 13.0408 0.0955279C13.1853 0.0325289 13.3414 0 13.4993 0C13.6571 0 13.8133 0.0325289 13.9578 0.0955279C14.1023 0.158527 14.2321 0.250624 14.3389 0.36599C20.3466 6.88342 24.5382 14.8435 26.5 23.4604C23.4074 24.1073 20.2699 24.5213 17.1144 24.6986L14.1379 30.6095C14.0787 30.7268 13.9877 30.8255 13.8751 30.8945C13.7626 30.9635 13.633 31 13.5007 31C13.3685 31 13.2388 30.9635 13.1263 30.8945C13.0137 30.8255 12.9228 30.7268 12.8635 30.6095L9.8856 24.6986C6.73012 24.5211 3.59267 24.1071 0.5 23.4604V23.4632ZM10.0467 21.8741L11.6974 21.9675L13.5007 25.5477L15.304 21.9675L16.9533 21.8741C18.9715 21.7607 20.9826 21.5463 22.979 21.2316C21.0872 14.7955 17.8579 8.82427 13.4993 3.70279C9.14165 8.8245 5.91335 14.7957 4.02245 21.2316C6.01836 21.5462 8.029 21.7607 10.0467 21.8741ZM13.5007 19.1415C12.3665 19.1415 11.2787 18.6942 10.4767 17.8981C9.67473 17.102 9.22416 16.0221 9.22416 14.8962C9.22416 13.7703 9.67473 12.6905 10.4767 11.8943C11.2787 11.0982 12.3665 10.6509 13.5007 10.6509C14.6349 10.6509 15.7227 11.0982 16.5247 11.8943C17.3267 12.6905 17.7773 13.7703 17.7773 14.8962C17.7773 16.0221 17.3267 17.102 16.5247 17.8981C15.7227 18.6942 14.6349 19.1415 13.5007 19.1415ZM13.5007 16.3113C13.8788 16.3113 14.2414 16.1622 14.5087 15.8968C14.776 15.6315 14.9262 15.2715 14.9262 14.8962C14.9262 14.5209 14.776 14.161 14.5087 13.8956C14.2414 13.6302 13.8788 13.4811 13.5007 13.4811C13.1226 13.4811 12.7601 13.6302 12.4927 13.8956C12.2254 14.161 12.0752 14.5209 12.0752 14.8962C12.0752 15.2715 12.2254 15.6315 12.4927 15.8968C12.7601 16.1622 13.1226 16.3113 13.5007 16.3113Z" fill="#9CA3AF"/>
</svg>
