<svg width="31" height="28" viewBox="0 0 31 28" fill="none" xmlns="http://www.w3.org/2000/svg">
<path d="M28.1296 0H2.87039C2.10912 0 1.37903 0.294999 0.840736 0.820101C0.302438 1.3452 2.50289e-05 2.05739 2.50289e-05 2.8V25.2C-0.00226763 25.7332 0.152991 26.2558 0.447222 26.7052C0.741453 27.1546 1.16219 27.5118 1.6591 27.734C2.04054 27.9082 2.4564 27.999 2.87757 28C3.55157 27.9983 4.20326 27.7642 4.71747 27.3392L4.74474 27.3168L9.1852 23.52H28.1296C28.8909 23.52 29.621 23.225 30.1593 22.6999C30.6976 22.1748 31 21.4626 31 20.72V2.8C31 2.05739 30.6976 1.3452 30.1593 0.820101C29.621 0.294999 28.8909 0 28.1296 0ZM27.5556 20.16H8.96992C8.2942 20.16 7.64011 20.3925 7.12284 20.8166L7.09558 20.839L3.44447 23.9596V3.36H27.5556V20.16Z" fill="#9CA3AF"/>
</svg>
