<svg width="70" height="22" viewBox="0 0 70 22" fill="none" xmlns="http://www.w3.org/2000/svg">
<path id="Vector" d="M13.2275 4.20409L8.14453 13.3008H14.5459L13.3008 4.20409H13.2275ZM15.6006 21.665L14.8535 16.0547H6.73828L3.55956 21.665H0L12.1435 0.527344H15.7178L18.7939 21.665H15.6006ZM21.7592 21.665L26.2564 0.527344H29.4058L24.9086 21.665H21.7592ZM29.4561 21.665L32.7374 6.21094H35.9014L32.6202 21.665H29.4561ZM35.2424 3.77928C34.7443 3.77928 34.3146 3.59375 33.9533 3.22266C33.6018 2.85156 33.4258 2.40722 33.4258 1.88966C33.4258 1.36228 33.6018 0.917968 33.9533 0.556624C34.3146 0.18553 34.7443 0 35.2424 0C35.7599 0 36.1946 0.18553 36.5461 0.556624C36.8977 0.917968 37.0733 1.36228 37.0733 1.88966C37.0733 2.40722 36.8977 2.85156 36.5461 3.22266C36.1946 3.59375 35.7599 3.77928 35.2424 3.77928ZM44.5799 21.9582C43.3396 21.9582 42.2558 21.7238 41.328 21.255C40.4099 20.7763 39.6971 20.0782 39.1893 19.16C38.6911 18.2324 38.4421 17.0996 38.4421 15.7617C38.4421 14.4336 38.6327 13.1397 39.0136 11.8799C39.3942 10.6103 39.9558 9.46778 40.698 8.45216C41.4402 7.43653 42.3436 6.63084 43.408 6.03516C44.4724 5.43944 45.6833 5.14159 47.0408 5.14159C48.7011 5.14159 49.9461 5.51756 50.7761 6.26953C51.6161 7.01172 52.0358 7.99803 52.0358 9.2285C52.0358 10.0683 51.8455 10.835 51.4646 11.5283C51.0839 12.2217 50.5027 12.8223 49.7214 13.3301C48.9499 13.8281 47.9686 14.2138 46.7771 14.4873C45.5955 14.7607 44.2039 14.8975 42.6024 14.8975H41.9433C41.9333 15.0439 41.9236 15.1953 41.9139 15.3516C41.9043 15.498 41.8993 15.6445 41.8993 15.791C41.8993 16.875 42.1824 17.7295 42.7489 18.3545C43.3152 18.9697 44.1405 19.2772 45.2246 19.2772C46.0449 19.2772 46.8014 19.1747 47.4949 18.9697C48.1883 18.7647 48.9646 18.457 49.8239 18.0469V20.7569C49.033 21.1375 48.2324 21.4357 47.4218 21.6503C46.6111 21.8553 45.6639 21.9582 44.5799 21.9582ZM42.368 12.4072H42.8661C44.0574 12.4072 45.0927 12.2949 45.9714 12.0703C46.8505 11.8359 47.5293 11.4941 48.0077 11.0449C48.4861 10.5859 48.7255 10.0293 48.7255 9.375C48.7255 8.86719 48.5643 8.47166 48.2421 8.18847C47.9296 7.8955 47.4608 7.74903 46.8358 7.74903C46.2205 7.74903 45.6152 7.93944 45.0192 8.32031C44.4236 8.69141 43.8914 9.2285 43.4227 9.93163C42.9539 10.625 42.6024 11.4502 42.368 12.4072ZM53.7124 21.665L56.9789 6.21094H59.9818L59.4839 8.59862H59.5424C60.0699 7.75878 60.7583 7.09959 61.6077 6.62109C62.4671 6.14256 63.4486 5.90331 64.5521 5.90331C65.4702 5.90331 66.2952 6.09862 67.0277 6.48925C67.7602 6.87009 68.3364 7.39747 68.7561 8.07128C69.1761 8.74509 69.3861 9.52634 69.3861 10.415C69.3861 10.6885 69.3668 10.9912 69.3277 11.3232C69.2983 11.6455 69.2496 11.9727 69.1811 12.3047L67.2036 21.665H64.0686L65.9293 12.8467C65.9974 12.5635 66.0414 12.2998 66.0608 12.0557C66.0902 11.8115 66.1049 11.5967 66.1049 11.4111C66.1049 10.5713 65.8264 9.91209 65.2699 9.43359C64.7133 8.94531 63.9808 8.70116 63.0727 8.70116C62.3889 8.70116 61.7542 8.85253 61.1683 9.15528C60.5824 9.458 60.0843 9.89256 59.6743 10.459C59.2639 11.0156 58.9761 11.6748 58.8099 12.4365L56.8471 21.665H53.7124Z" fill="white"/>
</svg>
