<svg width="37" height="24" viewBox="0 0 37 24" fill="none" xmlns="http://www.w3.org/2000/svg">
<path d="M7.7 1.71429C7.7 0.766071 8.50438 0 9.5 0H18.5C19.4956 0 20.3 0.766071 20.3 1.71429V20.5714H25.7V12C25.7 11.0518 26.5044 10.2857 27.5 10.2857H34.7C35.6956 10.2857 36.5 11.0518 36.5 12C36.5 12.9482 35.6956 13.7143 34.7 13.7143H29.3V22.2857C29.3 23.2339 28.4956 24 27.5 24H18.5C17.5044 24 16.7 23.2339 16.7 22.2857V3.42857H11.3V12C11.3 12.9482 10.4956 13.7143 9.5 13.7143H2.3C1.30437 13.7143 0.5 12.9482 0.5 12C0.5 11.0518 1.30437 10.2857 2.3 10.2857H7.7V1.71429Z" fill="#9CA3AF"/>
</svg>
