<svg width="18" height="21" viewBox="0 0 18 21" fill="none" xmlns="http://www.w3.org/2000/svg">
<path d="M0 15.8944C1.35755 10.0566 4.25911 4.66361 8.41823 0.247929C8.49218 0.169778 8.58202 0.107389 8.68208 0.0647125C8.78214 0.0220357 8.89023 0 8.99951 0C9.10879 0 9.21688 0.0220357 9.31693 0.0647125C9.41699 0.107389 9.50684 0.169778 9.58079 0.247929C13.74 4.66297 16.6418 10.0553 18 15.8925C15.8589 16.3308 13.6869 16.6112 11.5023 16.7313L9.44164 20.7355C9.40061 20.815 9.33762 20.8818 9.25972 20.9285C9.18181 20.9753 9.09205 21 9.00049 21C8.90893 21 8.81918 20.9753 8.74127 20.9285C8.66337 20.8818 8.60038 20.815 8.55935 20.7355L6.49772 16.7313C4.31316 16.611 2.14108 16.3306 0 15.8925V15.8944ZM6.60924 14.8179L7.75207 14.8812L9.00049 17.3065L10.2489 14.8812L11.3908 14.8179C12.7879 14.7411 14.1803 14.5959 15.5624 14.3827C14.2527 10.0228 12.017 5.97773 8.99951 2.50834C5.98268 5.97788 3.74771 10.0229 2.43862 14.3827C3.82041 14.5958 5.21238 14.7411 6.60924 14.8179ZM9.00049 12.9668C8.21527 12.9668 7.46221 12.6638 6.90697 12.1245C6.35173 11.5852 6.0398 10.8537 6.0398 10.091C6.0398 9.32827 6.35173 8.59679 6.90697 8.05746C7.46221 7.51813 8.21527 7.21514 9.00049 7.21514C9.78572 7.21514 10.5388 7.51813 11.094 8.05746C11.6493 8.59679 11.9612 9.32827 11.9612 10.091C11.9612 10.8537 11.6493 11.5852 11.094 12.1245C10.5388 12.6638 9.78572 12.9668 9.00049 12.9668ZM9.00049 11.0496C9.26224 11.0496 9.51326 10.9486 9.69833 10.7688C9.88341 10.5891 9.98739 10.3452 9.98739 10.091C9.98739 9.83675 9.88341 9.59292 9.69833 9.41315C9.51326 9.23337 9.26224 9.13237 9.00049 9.13237C8.73875 9.13237 8.48773 9.23337 8.30265 9.41315C8.11757 9.59292 8.0136 9.83675 8.0136 10.091C8.0136 10.3452 8.11757 10.5891 8.30265 10.7688C8.48773 10.9486 8.73875 11.0496 9.00049 11.0496Z" fill="url(#paint0_linear_356_1178)"/>
<defs>
<linearGradient id="paint0_linear_356_1178" x1="0.346154" y1="10.1613" x2="18.3462" y2="10.1613" gradientUnits="userSpaceOnUse">
<stop stop-color="white"/>
<stop offset="1" stop-color="white"/>
</linearGradient>
</defs>
</svg>
