<svg width="48" height="48" viewBox="0 0 48 48" fill="none" xmlns="http://www.w3.org/2000/svg">
<rect width="48" height="48" rx="24" fill="#A0AEC0"/>
<path fill-rule="evenodd" clip-rule="evenodd" d="M14.5641 15.2963C14.5641 10.1613 18.7872 6 23.9984 6C29.2096 6 33.4359 10.1613 33.4359 15.2963C33.4359 20.4344 29.2096 24.5958 23.9984 24.5958C18.7872 24.5958 14.5641 20.4344 14.5641 15.2963ZM24.0672 44C30.2976 44 35.936 41.5421 40 37.588V34.783C40 31.3911 37.136 28.6383 33.6 28.6383H14.4C10.864 28.6383 8 31.3911 8 34.783V37.4467C12.0736 41.4807 17.7664 44 24.0672 44Z" fill="white"/>
</svg>
