<svg width="79" height="24" viewBox="0 0 79 24" fill="none" xmlns="http://www.w3.org/2000/svg">
<path id="Vector" d="M15.0603 4.59502L9.27301 14.5376H16.5613L15.1437 4.59502H15.0603ZM17.7621 23.6796L16.9115 17.5476H7.67191L4.05276 23.6796H0L13.8261 0.57638H17.8955L21.398 23.6796H17.7621ZM24.7741 23.6796L29.8944 0.57638H33.4802L28.3599 23.6796H24.7741ZM33.5374 23.6796L37.2733 6.78848H40.8758L37.1399 23.6796H33.5374ZM40.1254 4.13071C39.5583 4.13071 39.0691 3.92793 38.6578 3.52232C38.2575 3.11672 38.0572 2.63106 38.0572 2.06537C38.0572 1.48896 38.2575 1.00333 38.6578 0.608383C39.0691 0.202782 39.5583 0 40.1254 0C40.7146 0 41.2095 0.202782 41.6098 0.608383C42.0101 1.00333 42.21 1.48896 42.21 2.06537C42.21 2.63106 42.0101 3.11672 41.6098 3.52232C41.2095 3.92793 40.7146 4.13071 40.1254 4.13071ZM50.7567 24C49.3445 24 48.1106 23.7438 47.0542 23.2315C46.0089 22.7082 45.1973 21.9452 44.6192 20.9417C44.052 19.9278 43.7684 18.6896 43.7684 17.2274C43.7684 15.7757 43.9855 14.3615 44.4192 12.9846C44.8526 11.597 45.4919 10.3482 46.337 9.23811C47.182 8.12804 48.2106 7.24743 49.4224 6.59635C50.6343 5.94524 52.013 5.6197 53.5586 5.6197C55.449 5.6197 56.8665 6.03063 57.8115 6.85252C58.7679 7.66372 59.2457 8.74175 59.2457 10.0866C59.2457 11.0046 59.029 11.8425 58.5953 12.6003C58.1619 13.3581 57.5001 14.0146 56.6106 14.5696C55.7322 15.114 54.615 15.5356 53.2583 15.8344C51.913 16.1333 50.3287 16.2828 48.5052 16.2828H47.7548C47.7434 16.4428 47.7324 16.6083 47.7214 16.7791C47.7103 16.9392 47.7046 17.0993 47.7046 17.2594C47.7046 18.4442 48.027 19.3781 48.6721 20.0612C49.3168 20.7337 50.2564 21.0698 51.4907 21.0698C52.4247 21.0698 53.2861 20.9577 54.0756 20.7337C54.8651 20.5095 55.7489 20.1733 56.7273 19.725V22.6871C55.8268 23.1031 54.9153 23.4289 53.9923 23.6636C53.0694 23.8876 51.991 24 50.7567 24ZM48.2383 13.5609H48.8055C50.1618 13.5609 51.3406 13.4382 52.3411 13.1927C53.3419 12.9365 54.1147 12.5629 54.6594 12.0719C55.2042 11.5703 55.4767 10.9619 55.4767 10.2468C55.4767 9.69173 55.2931 9.25942 54.9263 8.9499C54.5705 8.62969 54.0368 8.4696 53.3252 8.4696C52.6246 8.4696 51.9355 8.67771 51.2569 9.094C50.5788 9.4996 49.9729 10.0866 49.4392 10.8551C48.9055 11.613 48.5052 12.5149 48.2383 13.5609ZM61.1546 23.6796L64.8737 6.78848H68.2926L67.7258 9.39819H67.7923C68.3929 8.48025 69.1768 7.75977 70.1438 7.23678C71.1223 6.71375 72.2398 6.45225 73.4961 6.45225C74.5415 6.45225 75.4808 6.66572 76.3148 7.09267C77.1488 7.50893 77.8049 8.08534 78.2827 8.82181C78.7609 9.55828 79 10.4122 79 11.3835C79 11.6824 78.9779 12.0133 78.9335 12.3761C78.9 12.7284 78.8445 13.086 78.7666 13.4489L76.5151 23.6796H72.9457L75.0641 14.0412C75.1417 13.7317 75.1919 13.4435 75.2139 13.1767C75.2474 12.9099 75.2641 12.675 75.2641 12.4722C75.2641 11.5543 74.9471 10.8338 74.3134 10.3108C73.6797 9.77712 72.8457 9.51026 71.8118 9.51026C71.0333 9.51026 70.3107 9.67571 69.6436 10.0066C68.9764 10.3375 68.4093 10.8125 67.9425 11.4315C67.4753 12.0399 67.1476 12.7604 66.9583 13.593L64.7236 23.6796H61.1546Z" fill="url(#paint0_linear_354_2883)"/>
<defs>
<linearGradient id="paint0_linear_354_2883" x1="-2.94298e-07" y1="12" x2="79" y2="12" gradientUnits="userSpaceOnUse">
<stop stop-color="#9334EB"/>
<stop offset="1" stop-color="#61A5FB"/>
</linearGradient>
</defs>
</svg>
