<svg width="19" height="21" viewBox="0 0 19 21" fill="none" xmlns="http://www.w3.org/2000/svg">
<g id="Group">
<path id="Vector" d="M4 5.28583H3C2.46957 5.28583 1.96086 5.51159 1.58579 5.91346C1.21071 6.31532 1 6.86036 1 7.42868V17.0715C1 17.6399 1.21071 18.1849 1.58579 18.5868C1.96086 18.9886 2.46957 19.2144 3 19.2144H12C12.5304 19.2144 13.0391 18.9886 13.4142 18.5868C13.7893 18.1849 14 17.6399 14 17.0715V16.0001" stroke="#9CA3AF" stroke-width="2" stroke-linecap="round" stroke-linejoin="round"/>
<path id="Vector_2" d="M13 3.14297L16 6.35726M17.385 4.84119C17.7788 4.41921 18.0001 3.84688 18.0001 3.25011C18.0001 2.65335 17.7788 2.08102 17.385 1.65904C16.9912 1.23706 16.457 1 15.9 1C15.343 1 14.8088 1.23706 14.415 1.65904L6 10.643V13.8573H9L17.385 4.84119Z" stroke="#9CA3AF" stroke-width="2" stroke-linecap="round" stroke-linejoin="round"/>
</g>
</svg>
