<svg width="22" height="26" viewBox="0 0 22 26" fill="none" xmlns="http://www.w3.org/2000/svg">
<path id="Vector" d="M11 0C8.08364 0.00337925 5.28769 1.17844 3.22551 3.2674C1.16333 5.35636 0.00333593 8.18862 0 11.1429C0 13.9286 1.43917 17.5337 3.85115 20.7768C6.27802 24.0442 8.9501 26 11 26C13.0499 26 15.722 24.0488 18.1489 20.7768C20.5608 17.5268 22 13.9286 22 11.1429C21.9967 8.18862 20.8367 5.35636 18.7745 3.2674C16.7123 1.17844 13.9164 0.00337925 11 0ZM3.66667 11.6071C3.66667 11.2377 3.81153 10.8835 4.06939 10.6222C4.32726 10.361 4.67699 10.2143 5.04167 10.2143C6.13568 10.2143 7.18489 10.6545 7.95848 11.4382C8.73207 12.2218 9.16667 13.2846 9.16667 14.3929C9.16667 14.7623 9.0218 15.1165 8.76394 15.3778C8.50608 15.639 8.15634 15.7857 7.79167 15.7857C6.69765 15.7857 5.64844 15.3455 4.87485 14.5618C4.10126 13.7782 3.66667 12.7154 3.66667 11.6071ZM12.8333 21.3571H9.16667C8.92355 21.3571 8.69039 21.2593 8.51849 21.0852C8.34658 20.911 8.25 20.6748 8.25 20.4286C8.25 20.1823 8.34658 19.9461 8.51849 19.772C8.69039 19.5978 8.92355 19.5 9.16667 19.5H12.8333C13.0764 19.5 13.3096 19.5978 13.4815 19.772C13.6534 19.9461 13.75 20.1823 13.75 20.4286C13.75 20.6748 13.6534 20.911 13.4815 21.0852C13.3096 21.2593 13.0764 21.3571 12.8333 21.3571ZM14.2083 15.7857C13.8437 15.7857 13.4939 15.639 13.2361 15.3778C12.9782 15.1165 12.8333 14.7623 12.8333 14.3929C12.8333 13.2846 13.2679 12.2218 14.0415 11.4382C14.8151 10.6545 15.8643 10.2143 16.9583 10.2143C17.323 10.2143 17.6727 10.361 17.9306 10.6222C18.1885 10.8835 18.3333 11.2377 18.3333 11.6071C18.3333 12.1559 18.2266 12.6992 18.0193 13.2062C17.812 13.7132 17.5082 14.1738 17.1251 14.5618C16.7421 14.9499 16.2874 15.2576 15.7869 15.4676C15.2864 15.6776 14.75 15.7857 14.2083 15.7857Z" fill="#9238EC"/>
</svg>
