<svg width="14" height="21" viewBox="0 0 14 21" fill="none" xmlns="http://www.w3.org/2000/svg">
<path id="Vector" d="M7 0.25C3.13 0.25 0 3.38 0 7.25C0 12.5 7 20.25 7 20.25C7 20.25 14 12.5 14 7.25C14 3.38 10.87 0.25 7 0.25ZM7 9.75C6.33696 9.75 5.70107 9.48661 5.23223 9.01777C4.76339 8.54893 4.5 7.91304 4.5 7.25C4.5 6.58696 4.76339 5.95107 5.23223 5.48223C5.70107 5.01339 6.33696 4.75 7 4.75C7.66304 4.75 8.29893 5.01339 8.76777 5.48223C9.23661 5.95107 9.5 6.58696 9.5 7.25C9.5 7.91304 9.23661 8.54893 8.76777 9.01777C8.29893 9.48661 7.66304 9.75 7 9.75Z" fill="url(#paint0_linear_349_2003)"/>
<defs>
<linearGradient id="paint0_linear_349_2003" x1="-2" y1="10.25" x2="14" y2="10.25" gradientUnits="userSpaceOnUse">
<stop stop-color="#9434EB"/>
<stop offset="1" stop-color="#61A6FB"/>
</linearGradient>
</defs>
</svg>
