<svg width="94" height="110" viewBox="0 0 94 110" fill="none" xmlns="http://www.w3.org/2000/svg">
<path id="Vector" d="M46.875 0C34.4473 0.0142156 22.5328 4.95738 13.7451 13.7451C4.95738 22.5328 0.0142156 34.4473 0 46.875C0 58.5938 6.13281 73.7598 16.4111 87.4023C26.7529 101.147 38.1396 109.375 46.875 109.375C55.6104 109.375 66.9971 101.167 77.3389 87.4023C87.6172 73.7305 93.75 58.5938 93.75 46.875C93.7358 34.4473 88.7926 22.5328 80.0049 13.7451C71.2172 4.95738 59.3027 0.0142156 46.875 0ZM15.625 48.8281C15.625 47.2741 16.2423 45.7838 17.3412 44.6849C18.44 43.5861 19.9304 42.9688 21.4844 42.9688C26.1464 42.9688 30.6174 44.8207 33.914 48.1173C37.2105 51.4138 39.0625 55.8849 39.0625 60.5469C39.0625 62.1009 38.4452 63.5912 37.3463 64.6901C36.2475 65.7889 34.7571 66.4062 33.2031 66.4062C28.5411 66.4062 24.0701 64.5543 20.7735 61.2577C17.477 57.9612 15.625 53.4901 15.625 48.8281ZM54.6875 89.8438H39.0625C38.0265 89.8438 37.0329 89.4322 36.3004 88.6996C35.5678 87.9671 35.1562 86.9735 35.1562 85.9375C35.1562 84.9015 35.5678 83.9079 36.3004 83.1754C37.0329 82.4428 38.0265 82.0312 39.0625 82.0312H54.6875C55.7235 82.0312 56.7171 82.4428 57.4496 83.1754C58.1822 83.9079 58.5938 84.9015 58.5938 85.9375C58.5938 86.9735 58.1822 87.9671 57.4496 88.6996C56.7171 89.4322 55.7235 89.8438 54.6875 89.8438ZM60.5469 66.4062C58.9929 66.4062 57.5025 65.7889 56.4037 64.6901C55.3048 63.5912 54.6875 62.1009 54.6875 60.5469C54.6875 55.8849 56.5395 51.4138 59.836 48.1173C63.1326 44.8207 67.6036 42.9688 72.2656 42.9688C73.8196 42.9688 75.31 43.5861 76.4088 44.6849C77.5077 45.7838 78.125 47.2741 78.125 48.8281C78.125 51.1365 77.6703 53.4223 76.7869 55.555C75.9036 57.6877 74.6088 59.6255 72.9765 61.2577C71.3442 62.89 69.4064 64.1848 67.2737 65.0682C65.1411 65.9516 62.8553 66.4062 60.5469 66.4062Z" fill="url(#paint0_linear_349_2072)"/>
<defs>
<linearGradient id="paint0_linear_349_2072" x1="-2.74349e-06" y1="55" x2="94" y2="55" gradientUnits="userSpaceOnUse">
<stop stop-color="#9335EC"/>
<stop offset="1" stop-color="#62A5FC"/>
</linearGradient>
</defs>
</svg>
